<svg width="150" height="150" viewBox="0 0 150 150" fill="none" xmlns="http://www.w3.org/2000/svg">
  <rect width="150" height="150" rx="8" fill="#F3F4F6"/>
  <path d="M75 55C69.477 55 65 59.477 65 65C65 70.523 69.477 75 75 75C80.523 75 85 70.523 85 65C85 59.477 80.523 55 75 55ZM75 71C71.686 71 69 68.314 69 65C69 61.686 71.686 59 75 59C78.314 59 81 61.686 81 65C81 68.314 78.314 71 75 71Z" fill="#9CA3AF"/>
  <path d="M45 35C42.239 35 40 37.239 40 40V110C40 112.761 42.239 115 45 115H105C107.761 115 110 112.761 110 110V40C110 37.239 107.761 35 105 35H45ZM106 87.5L91.5 73L78 86.5L62.5 71L44 89.5V40C44 39.448 44.448 39 45 39H105C105.552 39 106 39.448 106 40V87.5Z" fill="#9CA3AF"/>
</svg>